<svg id="visual" viewBox="0 0 900 600" width="900" height="600" xmlns="http://www.w3.org/2000/svg" xmlns:xlink="http://www.w3.org/1999/xlink" version="1.1"><rect x="0" y="0" width="900" height="600" fill="#002233"></rect><path d="M0 448L21.5 455C43 462 86 476 128.8 479C171.7 482 214.3 474 257.2 467C300 460 343 454 385.8 457.7C428.7 461.3 471.3 474.7 514.2 468C557 461.3 600 434.7 642.8 435C685.7 435.3 728.3 462.7 771.2 481.2C814 499.7 857 509.3 878.5 514.2L900 519L900 601L878.5 601C857 601 814 601 771.2 601C728.3 601 685.7 601 642.8 601C600 601 557 601 514.2 601C471.3 601 428.7 601 385.8 601C343 601 300 601 257.2 601C214.3 601 171.7 601 128.8 601C86 601 43 601 21.5 601L0 601Z" fill="#0066FF" stroke-linecap="round" stroke-linejoin="miter"></path></svg>