<svg id="visual" viewBox="0 0 900 600" width="900" height="600" xmlns="http://www.w3.org/2000/svg" xmlns:xlink="http://www.w3.org/1999/xlink" version="1.1"><rect x="0" y="0" width="900" height="600" fill="#6186a2"></rect><path d="M0 440L21.5 438.8C43 437.7 86 435.3 128.8 426.3C171.7 417.3 214.3 401.7 257.2 398.7C300 395.7 343 405.3 385.8 411.7C428.7 418 471.3 421 514.2 412.8C557 404.7 600 385.3 642.8 383.7C685.7 382 728.3 398 771.2 395.7C814 393.3 857 372.7 878.5 362.3L900 352L900 601L878.5 601C857 601 814 601 771.2 601C728.3 601 685.7 601 642.8 601C600 601 557 601 514.2 601C471.3 601 428.7 601 385.8 601C343 601 300 601 257.2 601C214.3 601 171.7 601 128.8 601C86 601 43 601 21.5 601L0 601Z" fill="#a09190"></path><path d="M0 435L21.5 438C43 441 86 447 128.8 441.3C171.7 435.7 214.3 418.3 257.2 415.8C300 413.3 343 425.7 385.8 427.2C428.7 428.7 471.3 419.3 514.2 415.3C557 411.3 600 412.7 642.8 415.2C685.7 417.7 728.3 421.3 771.2 431.3C814 441.3 857 457.7 878.5 465.8L900 474L900 601L878.5 601C857 601 814 601 771.2 601C728.3 601 685.7 601 642.8 601C600 601 557 601 514.2 601C471.3 601 428.7 601 385.8 601C343 601 300 601 257.2 601C214.3 601 171.7 601 128.8 601C86 601 43 601 21.5 601L0 601Z" fill="#938382"></path><path d="M0 501L21.5 494C43 487 86 473 128.8 470.8C171.7 468.7 214.3 478.3 257.2 482.7C300 487 343 486 385.8 479.7C428.7 473.3 471.3 461.7 514.2 461C557 460.3 600 470.7 642.8 472.5C685.7 474.3 728.3 467.7 771.2 464.7C814 461.7 857 462.3 878.5 462.7L900 463L900 601L878.5 601C857 601 814 601 771.2 601C728.3 601 685.7 601 642.8 601C600 601 557 601 514.2 601C471.3 601 428.7 601 385.8 601C343 601 300 601 257.2 601C214.3 601 171.7 601 128.8 601C86 601 43 601 21.5 601L0 601Z" fill="#867575"></path><path d="M0 490L21.5 488.7C43 487.3 86 484.7 128.8 489.2C171.7 493.7 214.3 505.3 257.2 512.7C300 520 343 523 385.8 517.8C428.7 512.7 471.3 499.3 514.2 501.8C557 504.3 600 522.7 642.8 521.8C685.7 521 728.3 501 771.2 496C814 491 857 501 878.5 506L900 511L900 601L878.5 601C857 601 814 601 771.2 601C728.3 601 685.7 601 642.8 601C600 601 557 601 514.2 601C471.3 601 428.7 601 385.8 601C343 601 300 601 257.2 601C214.3 601 171.7 601 128.8 601C86 601 43 601 21.5 601L0 601Z" fill="#796868"></path><path d="M0 524L21.5 530C43 536 86 548 128.8 548C171.7 548 214.3 536 257.2 532.2C300 528.3 343 532.7 385.8 536.2C428.7 539.7 471.3 542.3 514.2 546.7C557 551 600 557 642.8 555C685.7 553 728.3 543 771.2 544.7C814 546.3 857 559.7 878.5 566.3L900 573L900 601L878.5 601C857 601 814 601 771.2 601C728.3 601 685.7 601 642.8 601C600 601 557 601 514.2 601C471.3 601 428.7 601 385.8 601C343 601 300 601 257.2 601C214.3 601 171.7 601 128.8 601C86 601 43 601 21.5 601L0 601Z" fill="#6d5b5b"></path></svg>