<svg id="visual" viewBox="0 0 900 600" width="900" height="600" xmlns="http://www.w3.org/2000/svg" xmlns:xlink="http://www.w3.org/1999/xlink" version="1.1"><g stroke-width="1" stroke-linejoin="bevel"><path d="M479 316L398 411L482 403Z" fill="#246688" stroke="#246688"></path><path d="M479 316L383 314L398 411Z" fill="#246688" stroke="#246688"></path><path d="M299 483L392 487L398 411Z" fill="#19435d" stroke="#19435d"></path><path d="M398 411L392 487L482 403Z" fill="#081a28" stroke="#081a28"></path><path d="M379 187L308 311L383 314Z" fill="#246688" stroke="#246688"></path><path d="M383 314L308 311L398 411Z" fill="#205a7a" stroke="#205a7a"></path><path d="M308 311L280 412L398 411Z" fill="#112e42" stroke="#112e42"></path><path d="M392 487L497 514L482 403Z" fill="#1d4e6b" stroke="#1d4e6b"></path><path d="M603 211L489 190L479 316Z" fill="#19435d" stroke="#19435d"></path><path d="M618 402L479 316L482 403Z" fill="#00101c" stroke="#00101c"></path><path d="M479 316L489 190L383 314Z" fill="#1d4e6b" stroke="#1d4e6b"></path><path d="M489 190L379 187L383 314Z" fill="#00101c" stroke="#00101c"></path><path d="M280 412L299 483L398 411Z" fill="#205a7a" stroke="#205a7a"></path><path d="M392 487L410 600L497 514Z" fill="#1d4e6b" stroke="#1d4e6b"></path><path d="M593 520L618 402L482 403Z" fill="#19435d" stroke="#19435d"></path><path d="M618 402L611 295L479 316Z" fill="#0c2435" stroke="#0c2435"></path><path d="M497 514L593 520L482 403Z" fill="#1d4e6b" stroke="#1d4e6b"></path><path d="M379 187L285 195L308 311Z" fill="#246688" stroke="#246688"></path><path d="M308 311L209 319L280 412Z" fill="#15384f" stroke="#15384f"></path><path d="M611 295L603 211L479 316Z" fill="#246688" stroke="#246688"></path><path d="M285 195L209 319L308 311Z" fill="#081a28" stroke="#081a28"></path><path d="M280 412L201 410L299 483Z" fill="#205a7a" stroke="#205a7a"></path><path d="M209 319L201 410L280 412Z" fill="#15384f" stroke="#15384f"></path><path d="M295 600L410 600L392 487Z" fill="#277297" stroke="#277297"></path><path d="M497 514L490 600L593 520Z" fill="#15384f" stroke="#15384f"></path><path d="M295 600L392 487L299 483Z" fill="#00101c" stroke="#00101c"></path><path d="M410 600L490 600L497 514Z" fill="#297ea6" stroke="#297ea6"></path><path d="M593 520L681 409L618 402Z" fill="#15384f" stroke="#15384f"></path><path d="M618 402L704 320L611 295Z" fill="#0c2435" stroke="#0c2435"></path><path d="M611 295L717 188L603 211Z" fill="#081a28" stroke="#081a28"></path><path d="M681 409L704 320L618 402Z" fill="#0c2435" stroke="#0c2435"></path><path d="M580 99L481 91L489 190Z" fill="#297ea6" stroke="#297ea6"></path><path d="M489 190L397 89L379 187Z" fill="#112e42" stroke="#112e42"></path><path d="M379 187L315 82L285 195Z" fill="#19435d" stroke="#19435d"></path><path d="M481 91L397 89L489 190Z" fill="#112e42" stroke="#112e42"></path><path d="M220 600L295 600L299 483Z" fill="#1d4e6b" stroke="#1d4e6b"></path><path d="M83 498L185 508L201 410Z" fill="#1d4e6b" stroke="#1d4e6b"></path><path d="M201 410L185 508L299 483Z" fill="#0c2435" stroke="#0c2435"></path><path d="M490 600L610 600L593 520Z" fill="#112e42" stroke="#112e42"></path><path d="M593 520L714 516L681 409Z" fill="#205a7a" stroke="#205a7a"></path><path d="M285 195L196 183L209 319Z" fill="#0c2435" stroke="#0c2435"></path><path d="M209 319L82 387L201 410Z" fill="#112e42" stroke="#112e42"></path><path d="M199 81L196 183L285 195Z" fill="#19435d" stroke="#19435d"></path><path d="M713 112L580 99L603 211Z" fill="#19435d" stroke="#19435d"></path><path d="M603 211L580 99L489 190Z" fill="#297ea6" stroke="#297ea6"></path><path d="M406 0L315 82L397 89Z" fill="#277297" stroke="#277297"></path><path d="M397 89L315 82L379 187Z" fill="#081a28" stroke="#081a28"></path><path d="M610 600L714 516L593 520Z" fill="#0c2435" stroke="#0c2435"></path><path d="M681 409L782 381L704 320Z" fill="#297ea6" stroke="#297ea6"></path><path d="M185 508L220 600L299 483Z" fill="#246688" stroke="#246688"></path><path d="M196 183L119 282L209 319Z" fill="#246688" stroke="#246688"></path><path d="M704 320L717 188L611 295Z" fill="#112e42" stroke="#112e42"></path><path d="M780 184L717 188L820 283Z" fill="#205a7a" stroke="#205a7a"></path><path d="M714 516L782 381L681 409Z" fill="#00101c" stroke="#00101c"></path><path d="M119 282L82 387L209 319Z" fill="#081a28" stroke="#081a28"></path><path d="M185 508L83 600L220 600Z" fill="#246688" stroke="#246688"></path><path d="M610 600L705 600L714 516Z" fill="#205a7a" stroke="#205a7a"></path><path d="M714 516L810 512L782 381Z" fill="#0c2435" stroke="#0c2435"></path><path d="M500 0L406 0L481 91Z" fill="#205a7a" stroke="#205a7a"></path><path d="M481 91L406 0L397 89Z" fill="#0c2435" stroke="#0c2435"></path><path d="M315 82L199 81L285 195Z" fill="#1d4e6b" stroke="#1d4e6b"></path><path d="M283 0L199 81L315 82Z" fill="#205a7a" stroke="#205a7a"></path><path d="M196 183L91 180L119 282Z" fill="#297ea6" stroke="#297ea6"></path><path d="M580 99L500 0L481 91Z" fill="#246688" stroke="#246688"></path><path d="M619 0L500 0L580 99Z" fill="#112e42" stroke="#112e42"></path><path d="M780 184L713 112L717 188Z" fill="#112e42" stroke="#112e42"></path><path d="M717 188L713 112L603 211Z" fill="#205a7a" stroke="#205a7a"></path><path d="M82 387L83 498L201 410Z" fill="#19435d" stroke="#19435d"></path><path d="M820 283L717 188L704 320Z" fill="#19435d" stroke="#19435d"></path><path d="M82 113L91 180L196 183Z" fill="#205a7a" stroke="#205a7a"></path><path d="M0 307L0 413L82 387Z" fill="#297ea6" stroke="#297ea6"></path><path d="M406 0L283 0L315 82Z" fill="#277297" stroke="#277297"></path><path d="M199 81L82 113L196 183Z" fill="#297ea6" stroke="#297ea6"></path><path d="M900 394L820 283L782 381Z" fill="#1d4e6b" stroke="#1d4e6b"></path><path d="M782 381L820 283L704 320Z" fill="#0c2435" stroke="#0c2435"></path><path d="M787 600L810 512L714 516Z" fill="#081a28" stroke="#081a28"></path><path d="M717 0L619 0L713 112Z" fill="#1d4e6b" stroke="#1d4e6b"></path><path d="M713 112L619 0L580 99Z" fill="#19435d" stroke="#19435d"></path><path d="M705 600L787 600L714 516Z" fill="#277297" stroke="#277297"></path><path d="M0 600L83 600L83 498Z" fill="#081a28" stroke="#081a28"></path><path d="M83 498L83 600L185 508Z" fill="#112e42" stroke="#112e42"></path><path d="M283 0L209 0L199 81Z" fill="#081a28" stroke="#081a28"></path><path d="M94 0L82 113L199 81Z" fill="#19435d" stroke="#19435d"></path><path d="M0 307L82 387L119 282Z" fill="#15384f" stroke="#15384f"></path><path d="M0 307L119 282L0 192Z" fill="#205a7a" stroke="#205a7a"></path><path d="M82 387L0 413L83 498Z" fill="#0c2435" stroke="#0c2435"></path><path d="M0 192L119 282L91 180Z" fill="#1d4e6b" stroke="#1d4e6b"></path><path d="M0 413L0 484L83 498Z" fill="#0c2435" stroke="#0c2435"></path><path d="M900 188L804 90L780 184Z" fill="#15384f" stroke="#15384f"></path><path d="M780 184L804 90L713 112Z" fill="#1d4e6b" stroke="#1d4e6b"></path><path d="M804 90L717 0L713 112Z" fill="#246688" stroke="#246688"></path><path d="M900 482L900 394L782 381Z" fill="#0c2435" stroke="#0c2435"></path><path d="M820 283L900 188L780 184Z" fill="#205a7a" stroke="#205a7a"></path><path d="M900 482L782 381L810 512Z" fill="#246688" stroke="#246688"></path><path d="M82 113L0 192L91 180Z" fill="#277297" stroke="#277297"></path><path d="M900 394L900 282L820 283Z" fill="#19435d" stroke="#19435d"></path><path d="M900 600L900 482L810 512Z" fill="#205a7a" stroke="#205a7a"></path><path d="M900 282L900 188L820 283Z" fill="#205a7a" stroke="#205a7a"></path><path d="M804 90L813 0L717 0Z" fill="#19435d" stroke="#19435d"></path><path d="M0 484L0 600L83 498Z" fill="#277297" stroke="#277297"></path><path d="M209 0L94 0L199 81Z" fill="#15384f" stroke="#15384f"></path><path d="M82 113L0 108L0 192Z" fill="#1d4e6b" stroke="#1d4e6b"></path><path d="M0 0L0 108L82 113Z" fill="#19435d" stroke="#19435d"></path><path d="M787 600L900 600L810 512Z" fill="#205a7a" stroke="#205a7a"></path><path d="M900 0L813 0L804 90Z" fill="#205a7a" stroke="#205a7a"></path><path d="M900 188L900 102L804 90Z" fill="#15384f" stroke="#15384f"></path><path d="M94 0L0 0L82 113Z" fill="#297ea6" stroke="#297ea6"></path><path d="M900 102L900 0L804 90Z" fill="#081a28" stroke="#081a28"></path></g></svg>